# xmcd CD database file
#
# Track frame offsets:
#	182
#	15392
#	30625
#
# Disc length: 711 seconds
#
# Revision: 3
# Processed by: cddbd v1.5.2PL0 Copyright (c) Steve Scherf et al.
# Submitted via: CDex 1.51
#
DISCID=1502c503
DTITLE=KimKay - Lilali 
DYEAR=1997
DGENRE=Dance
TTITLE0=Lilali (Radiot Edit)
TTITLE1=Lilali (Mellow Edit)
TTITLE2=Lilali (Speed Garage Mix)
EXTD=YEAR: 1997
EXTT0=
EXTT1=
EXTT2=
PLAYORDER=
